# xmcd CD database file
#
# Track frame offsets:
#	183
#	29015
#	41320
#	53300
#	62440
#	76553
#	87000
#	98373
#	108328
#	117800
#	129110
#	142290
#	155308
#	167990
#	180373
#	192550
#	204540
#	216110
#	228813
#	241610
#
# Disc length: 3406 seconds
#
# Revision: 2
# Processed by: cddbd v1.5.1PL0 Copyright (c) Steve Scherf et al.
# Submitted via: CDex 1.51
#
DISCID=ed0d4c14
DTITLE=Stevie Wonder - Essential Stevie Wonder (Volume Two)
DYEAR=1987
DGENRE=Soul
TTITLE0=Fingertips (Full Version)
TTITLE1=Workout Stevie, Workout
TTITLE2=Hey Harmonica Man
TTITLE3=Kiss Me Baby
TTITLE4=High Heel Sneakers
TTITLE5=Happy Street
TTITLE6=Don't You Feel It
TTITLE7=Castles In The Sand
TTITLE8=Contract Of Love
TTITLE9=I Call It Pretty Music, But The Old People Call It The Blues Part I
TTITLE10=Uptight (Everything's Alright)
TTITLE11=Music Talk
TTITLE12=Ain't That Asking For Trouble
TTITLE13=Love A Go Go
TTITLE14=Be Cool, Be Calm (And Keep Yourself Together)
TTITLE15=Nothing's Too Good For My Baby
TTITLE16=I'd Cry
TTITLE17=Travelin' Man
TTITLE18=A Place In The Sun
TTITLE19=Blowin' In The Wind
EXTD=YEAR: 1987
EXTT0=
EXTT1=
EXTT2=
EXTT3=
EXTT4=
EXTT5=
EXTT6=
EXTT7=
EXTT8=
EXTT9=
EXTT10=
EXTT11=
EXTT12=
EXTT13=
EXTT14=
EXTT15=
EXTT16=
EXTT17=
EXTT18=
EXTT19=
PLAYORDER=
